<svg id="Camada_1" data-name="Camada 1" xmlns="http://www.w3.org/2000/svg" viewBox="0 0 595.28 841.89"><defs><style>.cls-1{fill:#47b48e;}</style></defs><title>backgroundPrancheta 1</title><path class="cls-1" d="M24.57,290.93V541.38c0,38.73,119.73,70.12,267.43,70.12s267.43-31.39,267.43-70.12h1.14V290.93Z"/><path class="cls-1" d="M292,612c-71.48,0-138.68-7.3-189.23-20.56-50.75-13.3-78.7-31.09-78.7-50.06V290.43h537V541.87h-1.15c-.48,18.79-28.38,36.38-78.69,49.57C430.68,604.7,363.48,612,292,612ZM25.07,291.43v250C25.07,579.77,144.81,611,292,611s266.93-31.24,266.93-69.63v-.5h1.14V291.43Z"/></svg>